<svg xmlns="http://www.w3.org/2000/svg" viewBox="0 0 512 512">
  <defs>
    <linearGradient id="g" x1="0" y1="0" x2="1" y2="1">
      <stop offset="0%" stop-color="#ff7a00"/>
      <stop offset="100%" stop-color="#ff3d00"/>
    </linearGradient>
  </defs>
  <rect width="512" height="512" rx="110" fill="url(#g)"/>
  <path d="M256 58c-92 0-166 72-166 161 0 122 166 235 166 235s166-113 166-235C422 130 348 58 256 58z" fill="#fff"/>
  <rect x="153" y="166" width="206" height="118" rx="28" fill="#111"/>
  <rect x="178" y="188" width="46" height="38" rx="8" fill="#00c8ff"/>
  <rect x="233" y="188" width="46" height="38" rx="8" fill="#00c8ff"/>
  <rect x="288" y="188" width="46" height="38" rx="8" fill="#00c8ff"/>
  <path d="M184 252h144" stroke="#ff7a00" stroke-width="18" stroke-linecap="round"/>
  <circle cx="199" cy="300" r="20" fill="#111"/>
  <circle cx="313" cy="300" r="20" fill="#111"/>
  <circle cx="199" cy="300" r="8" fill="#fff"/>
  <circle cx="313" cy="300" r="8" fill="#fff"/>
  <path d="M216 348c28 25 52 25 80 0" stroke="#111" stroke-width="16" stroke-linecap="round" fill="none"/>
</svg>